<svg width="351" height="62" viewBox="0 0 351 62" fill="none" xmlns="http://www.w3.org/2000/svg">
<path d="M148.376 35.6828C148.698 35.463 148.952 35.1581 149.111 34.8021C149.269 34.4461 149.325 34.053 149.273 33.6669C149.221 33.2807 149.062 32.9168 148.815 32.6156C148.568 32.3145 148.241 32.0882 147.873 31.9619L116.767 21.3376C116.381 21.2058 115.965 21.189 115.57 21.2894C115.175 21.3898 114.818 21.603 114.542 21.903C114.266 22.203 114.083 22.5768 114.016 22.9789C113.949 23.3809 114 23.7938 114.164 24.1672L118.546 34.1699C118.729 34.588 119.043 34.935 119.442 35.1583C119.84 35.3816 120.3 35.4692 120.752 35.4077L130.264 34.1203C130.816 34.0456 131.375 34.1933 131.818 34.5307C132.261 34.8682 132.552 35.3678 132.627 35.9197C132.702 36.4717 132.554 37.0307 132.217 37.4737C131.879 37.9168 131.38 38.2077 130.828 38.2824L121.315 39.5698C120.863 39.6308 120.443 39.8375 120.118 40.1586C119.794 40.4797 119.583 40.8978 119.517 41.3495L117.954 52.1569C117.895 52.5602 117.955 52.9719 118.127 53.3417C118.298 53.7115 118.573 54.0235 118.919 54.2396C119.264 54.4557 119.665 54.5665 120.073 54.5587C120.48 54.5508 120.877 54.4245 121.214 54.1952L148.377 35.6848L148.376 35.6828Z" fill="#EF3054"/>
<path d="M350.5 59.9999L346.715 55.6403L344.832 61.0981L350.5 59.9999ZM1 59.9999C1.17132 60.4697 1.17157 60.4696 1.17214 60.4694C1.17277 60.4691 1.17366 60.4688 1.17491 60.4684C1.1774 60.4675 1.18118 60.4661 1.18625 60.4642C1.1964 60.4606 1.21168 60.455 1.23208 60.4476C1.27287 60.4329 1.33409 60.4108 1.41542 60.3816C1.57808 60.3232 1.82119 60.2364 2.14219 60.123C2.7842 59.8963 3.73779 59.5634 4.98257 59.1392C7.47215 58.2908 11.1264 57.0773 15.7824 55.6177C25.0944 52.6984 38.4123 48.7951 54.4318 44.8605C86.4744 36.9904 129.308 28.9993 172.506 28.4999L172.494 27.5C129.192 28.0006 86.2756 36.0095 54.1932 43.8894C38.1502 47.8298 24.8118 51.739 15.4832 54.6635C10.8189 56.1257 7.15676 57.3418 4.66001 58.1927C3.41163 58.6181 2.45457 58.9522 1.80922 59.1801C1.48655 59.294 1.2418 59.3814 1.07753 59.4404C0.995395 59.4699 0.933377 59.4923 0.891797 59.5073C0.871007 59.5148 0.855326 59.5205 0.844794 59.5243C0.839528 59.5263 0.835549 59.5277 0.832862 59.5287C0.831519 59.5292 0.830475 59.5296 0.829803 59.5298C0.829082 59.5301 0.828685 59.5302 1 59.9999ZM172.506 28.4999C247.897 27.6283 327.117 52.6205 346.085 59.0057L346.404 58.0579C327.419 51.6671 248.064 26.6263 172.494 27.5L172.506 28.4999Z" fill="black"/>
<path d="M149.759 29.5363C150.081 29.3166 150.335 29.0117 150.494 28.6557C150.652 28.2996 150.708 27.9066 150.656 27.5204C150.604 27.1343 150.445 26.7703 150.198 26.4692C149.95 26.1681 149.624 25.9417 149.256 25.8154L118.149 15.1912C117.764 15.0593 117.348 15.0426 116.953 15.143C116.558 15.2434 116.201 15.4566 115.925 15.7566C115.649 16.0566 115.466 16.4304 115.399 16.8324C115.332 17.2345 115.383 17.6474 115.546 18.0208L119.929 28.0235C120.112 28.4416 120.426 28.7885 120.824 29.0119C121.222 29.2352 121.682 29.3228 122.135 29.2613L131.647 27.9739C132.199 27.8992 132.758 28.0468 133.201 28.3843C133.644 28.7217 133.935 29.2214 134.01 29.7733C134.085 30.3252 133.937 30.8842 133.599 31.3273C133.262 31.7704 132.762 32.0613 132.21 32.136L122.698 33.4234C122.246 33.4844 121.825 33.6911 121.501 34.0122C121.177 34.3333 120.966 34.7514 120.9 35.2031L119.337 46.0105C119.278 46.4138 119.338 46.8255 119.509 47.1953C119.681 47.5651 119.956 47.8771 120.301 48.0932C120.647 48.3093 121.048 48.4201 121.456 48.4122C121.863 48.4043 122.259 48.2781 122.596 48.0488L149.759 29.5384L149.759 29.5363Z" fill="#2F3061"/>
<path d="M151.142 23.3899C151.463 23.1702 151.718 22.8653 151.876 22.5092C152.035 22.1532 152.091 21.7602 152.038 21.374C151.986 20.9879 151.828 20.6239 151.58 20.3228C151.333 20.0217 151.007 19.7953 150.638 19.669L119.532 9.04478C119.146 8.91292 118.731 8.89617 118.335 8.99655C117.94 9.09694 117.583 9.31014 117.307 9.61014C117.031 9.91013 116.848 10.284 116.781 10.686C116.714 11.0881 116.766 11.501 116.929 11.8744L121.311 21.8771C121.494 22.2951 121.809 22.6421 122.207 22.8655C122.605 23.0888 123.065 23.1764 123.517 23.1149L133.03 21.8275C133.582 21.7528 134.141 21.9004 134.584 22.2379C135.027 22.5753 135.318 23.075 135.392 23.6269C135.467 24.1788 135.319 24.7378 134.982 25.1809C134.645 25.624 134.145 25.9149 133.593 25.9896L124.081 27.277C123.628 27.3379 123.208 27.5446 122.884 27.8658C122.559 28.1869 122.348 28.605 122.283 29.0567L120.719 39.8641C120.661 40.2674 120.721 40.6791 120.892 41.0489C121.063 41.4187 121.338 41.7307 121.684 41.9468C122.03 42.1628 122.431 42.2737 122.838 42.2658C123.246 42.2579 123.642 42.1316 123.979 41.9023L151.142 23.392L151.142 23.3899Z" fill="#FFE047"/>
</svg>
